G04 #@! TF.GenerationSoftware,KiCad,Pcbnew,(5.0.1-3-g963ef8bb5)*
G04 #@! TF.CreationDate,2019-09-15T11:53:47-04:00*
G04 #@! TF.ProjectId,RPiheader2x2,5250696865616465723278322E6B6963,rev?*
G04 #@! TF.SameCoordinates,Original*
G04 #@! TF.FileFunction,Drawing*
%FSLAX45Y45*%
G04 Gerber Fmt 4.5, Leading zero omitted, Abs format (unit mm)*
G04 Created by KiCad (PCBNEW (5.0.1-3-g963ef8bb5)) date Sunday, September 15, 2019 at 11:53:47 am*
%MOMM*%
%LPD*%
G01*
G04 APERTURE LIST*
%ADD10C,0.250000*%
G04 APERTURE END LIST*
D10*
X4351905Y1795238D02*
X4356667Y1804762D01*
X4361429Y1809524D01*
X4370952Y1814286D01*
X4375714Y1814286D01*
X4385238Y1809524D01*
X4390000Y1804762D01*
X4394762Y1795238D01*
X4394762Y1776190D01*
X4390000Y1766667D01*
X4385238Y1761905D01*
X4375714Y1757143D01*
X4370952Y1757143D01*
X4361429Y1761905D01*
X4356667Y1766667D01*
X4351905Y1776190D01*
X4351905Y1795238D01*
X4347143Y1804762D01*
X4342381Y1809524D01*
X4332857Y1814286D01*
X4313810Y1814286D01*
X4304286Y1809524D01*
X4299524Y1804762D01*
X4294762Y1795238D01*
X4294762Y1776190D01*
X4299524Y1766667D01*
X4304286Y1761905D01*
X4313810Y1757143D01*
X4332857Y1757143D01*
X4342381Y1761905D01*
X4347143Y1766667D01*
X4351905Y1776190D01*
X4394762Y1695238D02*
X4394762Y1685714D01*
X4390000Y1676190D01*
X4385238Y1671428D01*
X4375714Y1666667D01*
X4356667Y1661905D01*
X4332857Y1661905D01*
X4313810Y1666667D01*
X4304286Y1671428D01*
X4299524Y1676190D01*
X4294762Y1685714D01*
X4294762Y1695238D01*
X4299524Y1704762D01*
X4304286Y1709524D01*
X4313810Y1714286D01*
X4332857Y1719048D01*
X4356667Y1719048D01*
X4375714Y1714286D01*
X4385238Y1709524D01*
X4390000Y1704762D01*
X4394762Y1695238D01*
X4304286Y1619048D02*
X4299524Y1614286D01*
X4294762Y1619048D01*
X4299524Y1623809D01*
X4304286Y1619048D01*
X4294762Y1619048D01*
X4394762Y1552381D02*
X4394762Y1542857D01*
X4390000Y1533333D01*
X4385238Y1528571D01*
X4375714Y1523809D01*
X4356667Y1519048D01*
X4332857Y1519048D01*
X4313810Y1523809D01*
X4304286Y1528571D01*
X4299524Y1533333D01*
X4294762Y1542857D01*
X4294762Y1552381D01*
X4299524Y1561905D01*
X4304286Y1566667D01*
X4313810Y1571428D01*
X4332857Y1576190D01*
X4356667Y1576190D01*
X4375714Y1571428D01*
X4385238Y1566667D01*
X4390000Y1561905D01*
X4394762Y1552381D01*
X4394762Y1457143D02*
X4394762Y1447619D01*
X4390000Y1438095D01*
X4385238Y1433333D01*
X4375714Y1428571D01*
X4356667Y1423809D01*
X4332857Y1423809D01*
X4313810Y1428571D01*
X4304286Y1433333D01*
X4299524Y1438095D01*
X4294762Y1447619D01*
X4294762Y1457143D01*
X4299524Y1466667D01*
X4304286Y1471428D01*
X4313810Y1476190D01*
X4332857Y1480952D01*
X4356667Y1480952D01*
X4375714Y1476190D01*
X4385238Y1471428D01*
X4390000Y1466667D01*
X4394762Y1457143D01*
X4394762Y1361905D02*
X4394762Y1352381D01*
X4390000Y1342857D01*
X4385238Y1338095D01*
X4375714Y1333333D01*
X4356667Y1328571D01*
X4332857Y1328571D01*
X4313810Y1333333D01*
X4304286Y1338095D01*
X4299524Y1342857D01*
X4294762Y1352381D01*
X4294762Y1361905D01*
X4299524Y1371429D01*
X4304286Y1376190D01*
X4313810Y1380952D01*
X4332857Y1385714D01*
X4356667Y1385714D01*
X4375714Y1380952D01*
X4385238Y1376190D01*
X4390000Y1371429D01*
X4394762Y1361905D01*
X4294762Y1209524D02*
X4361429Y1209524D01*
X4351905Y1209524D02*
X4356667Y1204762D01*
X4361429Y1195238D01*
X4361429Y1180952D01*
X4356667Y1171429D01*
X4347143Y1166667D01*
X4294762Y1166667D01*
X4347143Y1166667D02*
X4356667Y1161905D01*
X4361429Y1152381D01*
X4361429Y1138095D01*
X4356667Y1128571D01*
X4347143Y1123810D01*
X4294762Y1123810D01*
X4294762Y1076190D02*
X4361429Y1076190D01*
X4351905Y1076190D02*
X4356667Y1071429D01*
X4361429Y1061905D01*
X4361429Y1047619D01*
X4356667Y1038095D01*
X4347143Y1033333D01*
X4294762Y1033333D01*
X4347143Y1033333D02*
X4356667Y1028571D01*
X4361429Y1019048D01*
X4361429Y1004762D01*
X4356667Y995238D01*
X4347143Y990476D01*
X4294762Y990476D01*
X4190000Y5400000D02*
X4190000Y-2600000D01*
X4000000Y5400000D02*
X4248642Y5400000D01*
X4000000Y-2600000D02*
X4248642Y-2600000D01*
X4190000Y-2600000D02*
X4131358Y-2487350D01*
X4190000Y-2600000D02*
X4248642Y-2487350D01*
X4190000Y5400000D02*
X4131358Y5287350D01*
X4190000Y5400000D02*
X4248642Y5287350D01*
X-395238Y5781905D02*
X-404762Y5786667D01*
X-409524Y5791428D01*
X-414286Y5800952D01*
X-414286Y5805714D01*
X-409524Y5815238D01*
X-404762Y5820000D01*
X-395238Y5824762D01*
X-376190Y5824762D01*
X-366667Y5820000D01*
X-361905Y5815238D01*
X-357143Y5805714D01*
X-357143Y5800952D01*
X-361905Y5791428D01*
X-366667Y5786667D01*
X-376190Y5781905D01*
X-395238Y5781905D01*
X-404762Y5777143D01*
X-409524Y5772381D01*
X-414286Y5762857D01*
X-414286Y5743809D01*
X-409524Y5734286D01*
X-404762Y5729524D01*
X-395238Y5724762D01*
X-376190Y5724762D01*
X-366667Y5729524D01*
X-361905Y5734286D01*
X-357143Y5743809D01*
X-357143Y5762857D01*
X-361905Y5772381D01*
X-366667Y5777143D01*
X-376190Y5781905D01*
X-295238Y5824762D02*
X-285714Y5824762D01*
X-276190Y5820000D01*
X-271429Y5815238D01*
X-266667Y5805714D01*
X-261905Y5786667D01*
X-261905Y5762857D01*
X-266667Y5743809D01*
X-271429Y5734286D01*
X-276190Y5729524D01*
X-285714Y5724762D01*
X-295238Y5724762D01*
X-304762Y5729524D01*
X-309524Y5734286D01*
X-314286Y5743809D01*
X-319048Y5762857D01*
X-319048Y5786667D01*
X-314286Y5805714D01*
X-309524Y5815238D01*
X-304762Y5820000D01*
X-295238Y5824762D01*
X-219048Y5734286D02*
X-214286Y5729524D01*
X-219048Y5724762D01*
X-223809Y5729524D01*
X-219048Y5734286D01*
X-219048Y5724762D01*
X-152381Y5824762D02*
X-142857Y5824762D01*
X-133333Y5820000D01*
X-128571Y5815238D01*
X-123809Y5805714D01*
X-119048Y5786667D01*
X-119048Y5762857D01*
X-123809Y5743809D01*
X-128571Y5734286D01*
X-133333Y5729524D01*
X-142857Y5724762D01*
X-152381Y5724762D01*
X-161905Y5729524D01*
X-166667Y5734286D01*
X-171429Y5743809D01*
X-176190Y5762857D01*
X-176190Y5786667D01*
X-171429Y5805714D01*
X-166667Y5815238D01*
X-161905Y5820000D01*
X-152381Y5824762D01*
X-57143Y5824762D02*
X-47619Y5824762D01*
X-38095Y5820000D01*
X-33333Y5815238D01*
X-28571Y5805714D01*
X-23809Y5786667D01*
X-23809Y5762857D01*
X-28571Y5743809D01*
X-33333Y5734286D01*
X-38095Y5729524D01*
X-47619Y5724762D01*
X-57143Y5724762D01*
X-66667Y5729524D01*
X-71429Y5734286D01*
X-76190Y5743809D01*
X-80952Y5762857D01*
X-80952Y5786667D01*
X-76190Y5805714D01*
X-71429Y5815238D01*
X-66667Y5820000D01*
X-57143Y5824762D01*
X38095Y5824762D02*
X47619Y5824762D01*
X57143Y5820000D01*
X61905Y5815238D01*
X66667Y5805714D01*
X71429Y5786667D01*
X71429Y5762857D01*
X66667Y5743809D01*
X61905Y5734286D01*
X57143Y5729524D01*
X47619Y5724762D01*
X38095Y5724762D01*
X28571Y5729524D01*
X23809Y5734286D01*
X19048Y5743809D01*
X14286Y5762857D01*
X14286Y5786667D01*
X19048Y5805714D01*
X23809Y5815238D01*
X28571Y5820000D01*
X38095Y5824762D01*
X190476Y5724762D02*
X190476Y5791428D01*
X190476Y5781905D02*
X195238Y5786667D01*
X204762Y5791428D01*
X219048Y5791428D01*
X228571Y5786667D01*
X233333Y5777143D01*
X233333Y5724762D01*
X233333Y5777143D02*
X238095Y5786667D01*
X247619Y5791428D01*
X261905Y5791428D01*
X271429Y5786667D01*
X276190Y5777143D01*
X276190Y5724762D01*
X323810Y5724762D02*
X323810Y5791428D01*
X323810Y5781905D02*
X328571Y5786667D01*
X338095Y5791428D01*
X352381Y5791428D01*
X361905Y5786667D01*
X366667Y5777143D01*
X366667Y5724762D01*
X366667Y5777143D02*
X371428Y5786667D01*
X380952Y5791428D01*
X395238Y5791428D01*
X404762Y5786667D01*
X409524Y5777143D01*
X409524Y5724762D01*
X-4000000Y5620000D02*
X4000000Y5620000D01*
X-4000000Y5400000D02*
X-4000000Y5678642D01*
X4000000Y5400000D02*
X4000000Y5678642D01*
X4000000Y5620000D02*
X3887350Y5561358D01*
X4000000Y5620000D02*
X3887350Y5678642D01*
X-4000000Y5620000D02*
X-3887350Y5561358D01*
X-4000000Y5620000D02*
X-3887350Y5678642D01*
M02*
