G04 #@! TF.GenerationSoftware,KiCad,Pcbnew,(5.0.1-3-g963ef8bb5)*
G04 #@! TF.CreationDate,2019-09-04T21:15:41-04:00*
G04 #@! TF.ProjectId,RPiheader,5250696865616465722E6B696361645F,rev?*
G04 #@! TF.SameCoordinates,Original*
G04 #@! TF.FileFunction,Soldermask,Top*
G04 #@! TF.FilePolarity,Negative*
%FSLAX45Y45*%
G04 Gerber Fmt 4.5, Leading zero omitted, Abs format (unit mm)*
G04 Created by KiCad (PCBNEW (5.0.1-3-g963ef8bb5)) date Wednesday, September 04, 2019 at 09:15:41 pm*
%MOMM*%
%LPD*%
G01*
G04 APERTURE LIST*
%ADD10C,0.021524*%
G04 APERTURE END LIST*
D10*
G36*
X267603Y248553D02*
X267603Y248553D01*
X267603Y248553D01*
X286454Y242835D01*
X286454Y242835D01*
X303826Y233549D01*
X319053Y221053D01*
X331549Y205826D01*
X340835Y188454D01*
X346553Y169603D01*
X348484Y150000D01*
X346553Y130397D01*
X340835Y111546D01*
X331549Y94174D01*
X319053Y78947D01*
X303826Y66451D01*
X303826Y66451D01*
X286454Y57165D01*
X267603Y51447D01*
X267603Y51447D01*
X267603Y51447D01*
X252912Y50000D01*
X243088Y50000D01*
X228397Y51447D01*
X228397Y51447D01*
X228397Y51447D01*
X209546Y57165D01*
X192174Y66451D01*
X192174Y66451D01*
X176947Y78947D01*
X164451Y94174D01*
X155165Y111546D01*
X149447Y130397D01*
X147516Y150000D01*
X149447Y169603D01*
X155165Y188454D01*
X164451Y205826D01*
X176947Y221053D01*
X192174Y233549D01*
X209546Y242835D01*
X209546Y242835D01*
X228397Y248553D01*
X228397Y248553D01*
X228397Y248553D01*
X243088Y250000D01*
X252912Y250000D01*
X267603Y248553D01*
X267603Y248553D01*
G37*
G36*
X13603Y248553D02*
X13603Y248553D01*
X13603Y248553D01*
X32453Y242835D01*
X32454Y242835D01*
X49826Y233549D01*
X65053Y221053D01*
X77549Y205826D01*
X86835Y188454D01*
X92553Y169603D01*
X94484Y150000D01*
X92553Y130397D01*
X86835Y111546D01*
X77549Y94174D01*
X65053Y78947D01*
X49826Y66451D01*
X49826Y66451D01*
X32453Y57165D01*
X13603Y51447D01*
X13603Y51447D01*
X13603Y51447D01*
X-1088Y50000D01*
X-10912Y50000D01*
X-25603Y51447D01*
X-25603Y51447D01*
X-25603Y51447D01*
X-44453Y57165D01*
X-61826Y66451D01*
X-61826Y66451D01*
X-77053Y78947D01*
X-89549Y94174D01*
X-98835Y111546D01*
X-104553Y130397D01*
X-106484Y150000D01*
X-104553Y169603D01*
X-98835Y188454D01*
X-89549Y205826D01*
X-77053Y221053D01*
X-61826Y233549D01*
X-44454Y242835D01*
X-44453Y242835D01*
X-25603Y248553D01*
X-25603Y248553D01*
X-25603Y248553D01*
X-10912Y250000D01*
X-1088Y250000D01*
X13603Y248553D01*
X13603Y248553D01*
G37*
G36*
X-160000Y50000D02*
X-360000Y50000D01*
X-360000Y250000D01*
X-160000Y250000D01*
X-160000Y50000D01*
X-160000Y50000D01*
G37*
G36*
X267603Y502553D02*
X267603Y502553D01*
X267603Y502553D01*
X286454Y496835D01*
X286454Y496835D01*
X303826Y487549D01*
X319053Y475053D01*
X331549Y459826D01*
X340835Y442454D01*
X346553Y423603D01*
X348484Y404000D01*
X346553Y384397D01*
X340835Y365546D01*
X331549Y348174D01*
X319053Y332947D01*
X303826Y320451D01*
X303826Y320451D01*
X286454Y311165D01*
X267603Y305447D01*
X267603Y305447D01*
X267603Y305447D01*
X252912Y304000D01*
X243088Y304000D01*
X228397Y305447D01*
X228397Y305447D01*
X228397Y305447D01*
X209546Y311165D01*
X192174Y320451D01*
X192174Y320451D01*
X176947Y332947D01*
X164451Y348174D01*
X155165Y365546D01*
X149447Y384397D01*
X147516Y404000D01*
X149447Y423603D01*
X155165Y442454D01*
X164451Y459826D01*
X176947Y475053D01*
X192174Y487549D01*
X209546Y496835D01*
X209546Y496835D01*
X228397Y502553D01*
X228397Y502553D01*
X228397Y502553D01*
X243088Y504000D01*
X252912Y504000D01*
X267603Y502553D01*
X267603Y502553D01*
G37*
G36*
X13603Y502553D02*
X13603Y502553D01*
X13603Y502553D01*
X32453Y496835D01*
X32454Y496835D01*
X49826Y487549D01*
X65053Y475053D01*
X77549Y459826D01*
X86835Y442454D01*
X92553Y423603D01*
X94484Y404000D01*
X92553Y384397D01*
X86835Y365546D01*
X77549Y348174D01*
X65053Y332947D01*
X49826Y320451D01*
X49826Y320451D01*
X32453Y311165D01*
X13603Y305447D01*
X13603Y305447D01*
X13603Y305447D01*
X-1088Y304000D01*
X-10912Y304000D01*
X-25603Y305447D01*
X-25603Y305447D01*
X-25603Y305447D01*
X-44453Y311165D01*
X-61826Y320451D01*
X-61826Y320451D01*
X-77053Y332947D01*
X-89549Y348174D01*
X-98835Y365546D01*
X-104553Y384397D01*
X-106484Y404000D01*
X-104553Y423603D01*
X-98835Y442454D01*
X-89549Y459826D01*
X-77053Y475053D01*
X-61826Y487549D01*
X-44454Y496835D01*
X-44453Y496835D01*
X-25603Y502553D01*
X-25603Y502553D01*
X-25603Y502553D01*
X-10912Y504000D01*
X-1088Y504000D01*
X13603Y502553D01*
X13603Y502553D01*
G37*
G36*
X-240397Y502553D02*
X-240397Y502553D01*
X-240397Y502553D01*
X-221546Y496835D01*
X-221546Y496835D01*
X-204174Y487549D01*
X-188947Y475053D01*
X-176451Y459826D01*
X-167165Y442454D01*
X-161447Y423603D01*
X-159516Y404000D01*
X-161447Y384397D01*
X-167165Y365546D01*
X-176451Y348174D01*
X-188947Y332947D01*
X-204174Y320451D01*
X-204174Y320451D01*
X-221546Y311165D01*
X-240397Y305447D01*
X-240397Y305447D01*
X-240397Y305447D01*
X-255088Y304000D01*
X-264912Y304000D01*
X-279603Y305447D01*
X-279603Y305447D01*
X-279603Y305447D01*
X-298454Y311165D01*
X-315826Y320451D01*
X-315826Y320451D01*
X-331053Y332947D01*
X-343549Y348174D01*
X-352835Y365546D01*
X-358553Y384397D01*
X-360484Y404000D01*
X-358553Y423603D01*
X-352835Y442454D01*
X-343549Y459826D01*
X-331053Y475053D01*
X-315826Y487549D01*
X-298454Y496835D01*
X-298454Y496835D01*
X-279603Y502553D01*
X-279603Y502553D01*
X-279603Y502553D01*
X-264912Y504000D01*
X-255088Y504000D01*
X-240397Y502553D01*
X-240397Y502553D01*
G37*
G36*
X203126Y1268271D02*
X211315Y1264879D01*
X218686Y1259954D01*
X224954Y1253686D01*
X229878Y1246316D01*
X233271Y1238126D01*
X235000Y1229432D01*
X235000Y1220568D01*
X233271Y1211874D01*
X229878Y1203685D01*
X224954Y1196314D01*
X218686Y1190046D01*
X211315Y1185122D01*
X203126Y1181729D01*
X194432Y1180000D01*
X185568Y1180000D01*
X176874Y1181729D01*
X168685Y1185122D01*
X161314Y1190046D01*
X155046Y1196314D01*
X150122Y1203685D01*
X146729Y1211874D01*
X145000Y1220568D01*
X145000Y1229432D01*
X146729Y1238126D01*
X150122Y1246316D01*
X155046Y1253686D01*
X161314Y1259954D01*
X168685Y1264879D01*
X176874Y1268271D01*
X185568Y1270000D01*
X194432Y1270000D01*
X203126Y1268271D01*
X203126Y1268271D01*
G37*
M02*
