M48
;DRILL file {KiCad (5.0.1-3-g963ef8bb5)} date Sunday, September 15, 2019 at 11:53:53 am
;FORMAT={-:-/ absolute / metric / decimal}
FMAT,2
METRIC,TZ
T1C0.300
T2C0.800
T3C1.000
%
G90
G05
M71
T1
X-11.3Y25.35
X-11.3Y12.25
X-2.5Y25.35
X-2.5Y12.25
X6.3Y25.35
X6.3Y12.25
X15.1Y25.35
X15.1Y12.25
T2
X-6.96Y4.09
X-6.96Y1.55
X-1.88Y4.09
X-1.88Y1.55
X10.64Y4.09
X10.64Y1.55
X15.72Y4.09
X15.72Y1.55
X10.64Y17.19
X10.64Y14.65
X15.72Y17.19
X15.72Y14.65
X-6.96Y17.19
X-6.96Y14.65
X-1.88Y17.19
X-1.88Y14.65
X1.84Y4.09
X1.84Y1.55
X6.92Y4.09
X6.92Y1.55
X1.84Y17.19
X1.84Y14.65
X6.92Y17.19
X6.92Y14.65
X-15.76Y17.19
X-15.76Y14.65
X-10.68Y17.19
X-10.68Y14.65
X-15.76Y4.09
X-15.76Y1.55
X-10.68Y4.09
X-10.68Y1.55
T3
X13.18Y17.19
X13.18Y14.65
X4.38Y17.19
X4.38Y14.65
X-13.22Y14.65
X-13.22Y4.09
X-13.22Y1.55
X-4.42Y4.09
X-4.42Y1.55
X13.18Y4.09
X13.18Y1.55
X-4.42Y17.19
X-4.42Y14.65
X4.38Y4.09
X4.38Y1.55
X-13.22Y17.19
T0
M30
