G04 #@! TF.GenerationSoftware,KiCad,Pcbnew,(5.0.1-3-g963ef8bb5)*
G04 #@! TF.CreationDate,2019-09-15T11:53:47-04:00*
G04 #@! TF.ProjectId,RPiheader2x2,5250696865616465723278322E6B6963,rev?*
G04 #@! TF.SameCoordinates,Original*
G04 #@! TF.FileFunction,Profile,NP*
%FSLAX45Y45*%
G04 Gerber Fmt 4.5, Leading zero omitted, Abs format (unit mm)*
G04 Created by KiCad (PCBNEW (5.0.1-3-g963ef8bb5)) date Sunday, September 15, 2019 at 11:53:47 am*
%MOMM*%
%LPD*%
G01*
G04 APERTURE LIST*
%ADD10C,0.150000*%
G04 APERTURE END LIST*
D10*
X1760000Y0D02*
X1760000Y-2600000D01*
X880000Y0D02*
X880000Y-2600000D01*
X0Y0D02*
X0Y-2600000D01*
X-1760000Y0D02*
X-1760000Y-2600000D01*
X1760000Y2620000D02*
X1760000Y5400000D01*
X880000Y2620000D02*
X880000Y5400000D01*
X0Y2620000D02*
X0Y5400000D01*
X-880000Y2620000D02*
X-880000Y5400000D01*
X-1760000Y2620000D02*
X-1760000Y5400000D01*
X-4000000Y2620000D02*
X-1760000Y2620000D01*
X-4000000Y1310000D02*
X-1760000Y1310000D01*
X-4000000Y0D02*
X-1760000Y0D01*
X1760000Y0D02*
X4000000Y0D01*
X1760000Y1310000D02*
X4000000Y1310000D01*
X1760000Y2620000D02*
X4000000Y2620000D01*
X-880000Y0D02*
X0Y0D01*
X0Y0D02*
X0Y1310000D01*
X0Y1310000D02*
X-880000Y1310000D01*
X-880000Y1310000D02*
X-880000Y0D01*
X-880000Y1310000D02*
X0Y1310000D01*
X0Y1310000D02*
X0Y2620000D01*
X0Y2620000D02*
X-880000Y2620000D01*
X-880000Y2620000D02*
X-880000Y1310000D01*
X-1760000Y1310000D02*
X-880000Y1310000D01*
X-880000Y1310000D02*
X-880000Y2620000D01*
X-880000Y2620000D02*
X-1760000Y2620000D01*
X-1760000Y2620000D02*
X-1760000Y1310000D01*
X-1760000Y0D02*
X-880000Y0D01*
X-880000Y0D02*
X-880000Y1310000D01*
X-880000Y1310000D02*
X-1760000Y1310000D01*
X-1760000Y1310000D02*
X-1760000Y0D01*
X4000000Y5400000D02*
X4000000Y-2600000D01*
X-4000000Y-2600000D02*
X-4000000Y5400000D01*
X4000000Y-2600000D02*
X-4000000Y-2600000D01*
X4000000Y5400000D02*
X-4000000Y5400000D01*
X880000Y1310000D02*
X1760000Y1310000D01*
X1760000Y1310000D02*
X1760000Y2620000D01*
X1760000Y2620000D02*
X880000Y2620000D01*
X880000Y2620000D02*
X880000Y1310000D01*
X0Y1310000D02*
X880000Y1310000D01*
X880000Y1310000D02*
X880000Y2620000D01*
X880000Y2620000D02*
X0Y2620000D01*
X0Y2620000D02*
X0Y1310000D01*
X880000Y0D02*
X1760000Y0D01*
X1760000Y0D02*
X1760000Y1310000D01*
X1760000Y1310000D02*
X880000Y1310000D01*
X880000Y1310000D02*
X880000Y0D01*
X0Y1310000D02*
X0Y0D01*
X880000Y1310000D02*
X0Y1310000D01*
X880000Y0D02*
X880000Y1310000D01*
X0Y0D02*
X880000Y0D01*
M02*
